<svg width="68" height="68" viewBox="0 0 68 68" fill="none" xmlns="http://www.w3.org/2000/svg">
<path d="M58.4375 7.4375H9.5625C8.38711 7.4375 7.4375 8.38711 7.4375 9.5625V58.4375C7.4375 59.6129 8.38711 60.5625 9.5625 60.5625H58.4375C59.6129 60.5625 60.5625 59.6129 60.5625 58.4375V9.5625C60.5625 8.38711 59.6129 7.4375 58.4375 7.4375ZM52.3016 22.9434H48.0582C44.7313 22.9434 44.0871 24.5238 44.0871 26.848V31.968H52.0293L50.9934 39.9832H44.0871V60.5625H35.8063V39.9898H28.8801V31.968H35.8063V26.0578C35.8063 19.198 39.9965 15.4594 46.1191 15.4594C49.0543 15.4594 51.5711 15.6785 52.3082 15.7781V22.9434H52.3016Z" fill="white"/>
</svg>
