<svg width="70" height="70" viewBox="0 0 70 70" fill="none" xmlns="http://www.w3.org/2000/svg">
<path d="M46.6667 8.75C50.5344 8.75 54.2437 10.2865 56.9786 13.0214C59.7135 15.7563 61.25 19.4656 61.25 23.3333V46.6667C61.25 50.5344 59.7135 54.2437 56.9786 56.9786C54.2437 59.7135 50.5344 61.25 46.6667 61.25H23.3333C19.4656 61.25 15.7563 59.7135 13.0214 56.9786C10.2865 54.2437 8.75 50.5344 8.75 46.6667V23.3333C8.75 19.4656 10.2865 15.7563 13.0214 13.0214C15.7563 10.2865 19.4656 8.75 23.3333 8.75H46.6667ZM35 23.3333C31.9058 23.3333 28.9383 24.5625 26.7504 26.7504C24.5625 28.9383 23.3333 31.9058 23.3333 35C23.3333 38.0942 24.5625 41.0617 26.7504 43.2496C28.9383 45.4375 31.9058 46.6667 35 46.6667C38.0942 46.6667 41.0617 45.4375 43.2496 43.2496C45.4375 41.0617 46.6667 38.0942 46.6667 35C46.6667 31.9058 45.4375 28.9383 43.2496 26.7504C41.0617 24.5625 38.0942 23.3333 35 23.3333ZM35 29.1667C36.5471 29.1667 38.0308 29.7812 39.1248 30.8752C40.2188 31.9692 40.8333 33.4529 40.8333 35C40.8333 36.5471 40.2188 38.0308 39.1248 39.1248C38.0308 40.2188 36.5471 40.8333 35 40.8333C33.4529 40.8333 31.9692 40.2188 30.8752 39.1248C29.7812 38.0308 29.1667 36.5471 29.1667 35C29.1667 33.4529 29.7812 31.9692 30.8752 30.8752C31.9692 29.7812 33.4529 29.1667 35 29.1667ZM48.125 18.9583C47.3515 18.9583 46.6096 19.2656 46.0626 19.8126C45.5156 20.3596 45.2083 21.1015 45.2083 21.875C45.2083 22.6485 45.5156 23.3904 46.0626 23.9374C46.6096 24.4844 47.3515 24.7917 48.125 24.7917C48.8985 24.7917 49.6404 24.4844 50.1874 23.9374C50.7344 23.3904 51.0417 22.6485 51.0417 21.875C51.0417 21.1015 50.7344 20.3596 50.1874 19.8126C49.6404 19.2656 48.8985 18.9583 48.125 18.9583Z" fill="white"/>
</svg>
