<svg width="64" height="64" viewBox="0 0 64 64" fill="none" xmlns="http://www.w3.org/2000/svg">
<path d="M50.6667 10.6667H13.3334C11.2116 10.6667 9.17681 11.5096 7.67652 13.0099C6.17623 14.5102 5.33337 16.545 5.33337 18.6667V45.3334C5.33337 47.4551 6.17623 49.49 7.67652 50.9903C9.17681 52.4906 11.2116 53.3334 13.3334 53.3334H50.6667C52.7884 53.3334 54.8233 52.4906 56.3236 50.9903C57.8238 49.49 58.6667 47.4551 58.6667 45.3334V18.6667C58.6667 16.545 57.8238 14.5102 56.3236 13.0099C54.8233 11.5096 52.7884 10.6667 50.6667 10.6667ZM50.6667 16.0001L33.3334 27.9201C32.928 28.1541 32.4681 28.2773 32 28.2773C31.5319 28.2773 31.0721 28.1541 30.6667 27.9201L13.3334 16.0001H50.6667Z" fill="white"/>
</svg>
