<svg width="1262" height="41" viewBox="0 0 1262 41" fill="none" xmlns="http://www.w3.org/2000/svg">
<path fill-rule="evenodd" clip-rule="evenodd" d="M643.636 40.1609L630.496 32.2767L617.356 40.1609L620.843 25.3014L609.234 15.3034L624.522 14.0141L630.496 0L636.471 14.0141L651.758 15.3034L640.149 25.3014L643.636 40.1609ZM589.923 22.1816L592.07 19.4772C592.224 19.2783 592.406 19.1322 592.617 19.0389C592.828 18.9457 593.048 18.899 593.278 18.899C593.508 18.899 593.729 18.9457 593.94 19.0389C594.15 19.1322 594.332 19.2783 594.486 19.4772L596.633 22.1816L599.892 23.2446C600.224 23.3441 600.486 23.5275 600.678 23.7948C600.87 24.0622 600.966 24.3575 600.966 24.6807C600.966 24.8299 600.943 24.9791 600.898 25.1283C600.854 25.2776 600.78 25.4205 600.678 25.5573L598.569 28.4668L598.646 31.5255C598.659 31.9607 598.512 32.3275 598.205 32.6259C597.898 32.9243 597.54 33.0735 597.131 33.0735C597.106 33.0735 596.965 33.0548 596.71 33.0175L593.278 32.085L589.847 33.0175C589.783 33.0424 589.712 33.058 589.636 33.0642C589.559 33.0704 589.489 33.0735 589.425 33.0735C589.016 33.0735 588.658 32.9243 588.351 32.6259C588.045 32.3275 587.898 31.9607 587.91 31.5255L587.987 28.4482L585.897 25.5573C585.795 25.4205 585.722 25.2776 585.677 25.1283C585.632 24.9791 585.61 24.8299 585.61 24.6807C585.61 24.3699 585.703 24.0808 585.888 23.8135C586.073 23.5462 586.332 23.3565 586.664 23.2446L589.923 22.1816ZM664.339 22.1816L666.486 19.4772C666.639 19.2783 666.821 19.1322 667.032 19.0389C667.243 18.9457 667.464 18.899 667.694 18.899C667.924 18.899 668.144 18.9457 668.355 19.0389C668.566 19.1322 668.748 19.2783 668.901 19.4772L671.048 22.1816L674.307 23.2446C674.64 23.3441 674.902 23.5275 675.094 23.7948C675.285 24.0622 675.381 24.3575 675.381 24.6807C675.381 24.8299 675.359 24.9791 675.314 25.1283C675.269 25.2776 675.196 25.4205 675.094 25.5573L672.985 28.4668L673.061 31.5255C673.074 31.9607 672.927 32.3275 672.62 32.6259C672.314 32.9243 671.956 33.0735 671.547 33.0735C671.521 33.0735 671.381 33.0548 671.125 33.0175L667.694 32.085L664.262 33.0175C664.198 33.0424 664.128 33.058 664.051 33.0642C663.975 33.0704 663.904 33.0735 663.84 33.0735C663.431 33.0735 663.073 32.9243 662.767 32.6259C662.46 32.3275 662.313 31.9607 662.326 31.5255L662.403 28.4482L660.313 25.5573C660.211 25.4205 660.137 25.2776 660.092 25.1283C660.048 24.9791 660.025 24.8299 660.025 24.6807C660.025 24.3699 660.118 24.0808 660.303 23.8135C660.489 23.5462 660.747 23.3565 661.08 23.2446L664.339 22.1816ZM687 26.0001H1262V24.8189H687V26.0001ZM575 25.9865H0V24.8052H575V25.9865Z" fill="#443226"/>
</svg>
